<?xml version="1.0" standalone="no"?>
<!DOCTYPE svg PUBLIC "-//W3C//DTD SVG 20010904//EN"
 "http://www.w3.org/TR/2001/REC-SVG-20010904/DTD/svg10.dtd">
<svg version="1.0" xmlns="http://www.w3.org/2000/svg"
 width="512.000000pt" height="512.000000pt" viewBox="0 0 512.000000 512.000000"
 preserveAspectRatio="xMidYMid meet">

<g transform="translate(0.000000,512.000000) scale(0.100000,-0.100000)"
fill="#000000" stroke="none">
<path d="M1380 4305 c-236 -50 -430 -212 -527 -440 -54 -128 -54 -116 -51
-1340 4 -1262 -1 -1166 76 -1322 69 -140 185 -256 325 -325 152 -75 107 -72
940 -75 l747 -4 25 25 c41 41 34 73 -39 160 -35 42 -78 103 -95 136 -18 33
-37 63 -44 67 -7 4 -300 10 -652 13 -629 5 -641 5 -687 27 -66 30 -133 96
-165 162 l-28 56 0 1115 0 1115 28 56 c32 66 99 132 165 162 l47 22 1115 0
1115 0 47 -22 c66 -30 133 -96 165 -162 l28 -56 5 -570 c3 -313 9 -577 13
-587 11 -21 49 -35 120 -42 31 -4 81 -15 110 -26 73 -28 111 -26 137 7 21 27
21 28 18 652 l-3 626 -28 80 c-91 258 -290 436 -549 489 -68 14 -209 16 -1185
15 -900 0 -1120 -3 -1173 -14z"/>
<path d="M2008 3398 c-19 -15 -498 -1503 -498 -1547 0 -42 23 -51 123 -51 68
0 87 3 99 18 12 14 48 118 84 245 5 16 30 17 332 17 l328 0 38 -117 c55 -170
48 -163 156 -163 78 0 93 3 111 21 14 14 19 28 15 42 -3 12 -114 360 -246 772
-149 465 -247 755 -257 763 -11 8 -58 12 -143 12 -86 0 -131 -4 -142 -12z
m268 -692 c64 -198 118 -366 121 -373 4 -11 -42 -13 -245 -13 l-249 0 116 363
c127 393 132 407 137 392 2 -5 56 -172 120 -369z"/>
<path d="M3177 3392 c-16 -17 -17 -86 -17 -789 0 -733 1 -771 18 -786 28 -26
182 -24 205 1 16 17 17 86 17 789 0 733 -1 771 -18 786 -28 26 -182 24 -205
-1z"/>
<path d="M3976 2058 c-8 -13 -49 -111 -92 -218 -130 -326 -164 -360 -490 -490
-115 -46 -215 -88 -222 -93 -7 -6 -12 -21 -10 -35 3 -22 24 -33 208 -106 245
-98 252 -102 319 -162 81 -73 113 -130 202 -356 71 -180 86 -209 106 -214 14
-4 28 -3 33 2 5 5 45 101 90 214 88 222 116 273 182 336 71 68 114 91 331 176
204 80 234 98 221 132 -3 8 -102 53 -222 101 -232 91 -304 134 -370 217 -46
58 -68 104 -147 308 -84 215 -104 242 -139 188z"/>
</g>
</svg>
