<svg xmlns="http://www.w3.org/2000/svg" width="150px" height="150px" viewBox="0 0 150 150" style="fill-rule:evenodd;">
<path fill="#000000" d="M 58.5,-0.5 C 63.8333,-0.5 69.1667,-0.5 74.5,-0.5C 82.1381,1.49045 88.8047,5.32378 94.5,11C 121.819,9.3236 137.486,21.9903 141.5,49C 140.833,52 140.167,55 139.5,58C 142.971,64.4572 145.804,71.2905 148,78.5C 150.202,89.8868 147.868,100.22 141,109.5C 140.902,117.577 140.235,125.577 139,133.5C 136.713,136.462 133.88,138.629 130.5,140C 122.5,140.333 114.5,140.667 106.5,141C 101.739,145.074 96.406,147.907 90.5,149.5C 85.1667,149.5 79.8333,149.5 74.5,149.5C 66.8619,147.51 60.1953,143.676 54.5,138C 27.1809,139.676 11.5143,127.01 7.5,100C 8.61578,95.9071 9.11578,91.7404 9,87.5C -1.93779,71.7501 -2.27112,55.7501 8,39.5C 14.0308,32.3037 21.5308,27.3037 30.5,24.5C 36.0978,11.8981 45.4311,3.56476 58.5,-0.5 Z M 63.5,9.5 C 71.0113,9.20824 77.678,11.3749 83.5,16C 72.7486,22.1241 62.2486,28.6241 52,35.5C 51.6667,41.8333 51.3333,48.1667 51,54.5C 49.9563,55.6226 49.2896,56.9559 49,58.5C 48.8306,64.8594 48.3306,71.1928 47.5,77.5C 44.8333,75.8333 42.1667,74.1667 39.5,72.5C 38.1304,58.1419 38.2971,43.8085 40,29.5C 44.3902,18.5973 52.2236,11.9306 63.5,9.5 Z M 97.5,21.5 C 116.63,20.6347 127.63,29.6347 130.5,48.5C 127.15,48.665 123.817,48.4983 120.5,48C 113.068,43.2861 105.401,39.1195 97.5,35.5C 89.1121,38.8611 81.1121,43.0278 73.5,48C 68.5111,48.4993 63.5111,48.6659 58.5,48.5C 58.2436,46.2075 58.5769,44.0408 59.5,42C 71.824,34.3411 84.4907,27.5078 97.5,21.5 Z M 26.5,37.5 C 28.3169,49.1248 29.1502,61.1248 29,73.5C 29.3742,74.4162 29.8742,75.2496 30.5,76C 36.5819,79.1227 42.4153,82.6227 48,86.5C 48.6667,91.1667 48.6667,95.8333 48,100.5C 38.7505,95.1258 29.5838,89.6258 20.5,84C 9.48209,72.5924 7.98209,60.0924 16,46.5C 19.1033,42.886 22.6033,39.886 26.5,37.5 Z M 93.5,44.5 C 95.6365,45.4026 97.6365,46.5693 99.5,48C 95.8333,48.6667 92.1667,48.6667 88.5,48C 90.5844,47.3028 92.2511,46.1361 93.5,44.5 Z M 18.5,95.5 C 28.3876,101.029 38.2209,106.695 48,112.5C 48.4993,117.489 48.6659,122.489 48.5,127.5C 28.5749,126.239 18.5749,115.573 18.5,95.5 Z"/>
<path fill="#f9f9f9" d="M 130.5,61.5 C 130.828,73.0123 130.495,84.3456 129.5,95.5C 124.702,91.2033 120.035,86.7033 115.5,82C 113.5,81.3333 111.5,81.3333 109.5,82C 93.3194,98.3474 76.9861,114.514 60.5,130.5C 59.2011,129.91 58.3678,128.91 58,127.5C 57.3333,105.167 57.3333,82.8333 58,60.5C 58.9025,59.2986 60.0692,58.4652 61.5,58C 83.8333,57.3333 106.167,57.3333 128.5,58C 129.823,58.8159 130.489,59.9826 130.5,61.5 Z"/>
<path fill="#bdbdbd" d="M 130.5,61.5 C 131.824,73.0067 131.824,84.6734 130.5,96.5C 129.893,96.3764 129.56,96.0431 129.5,95.5C 130.495,84.3456 130.828,73.0123 130.5,61.5 Z"/>
<path fill="#070707" d="M 73.5,67.5 C 78.4082,66.874 82.9082,67.874 87,70.5C 90.3862,76.0559 90.2195,81.5559 86.5,87C 80.8085,90.4937 75.3085,90.327 70,86.5C 65.77,78.9695 66.9366,72.6362 73.5,67.5 Z"/>
<path fill="#ebebeb" d="M 76.5,76.5 C 77.8333,76.5 79.1667,76.5 80.5,76.5C 80.5,77.8333 80.5,79.1667 80.5,80.5C 79.1667,80.5 77.8333,80.5 76.5,80.5C 76.5,79.1667 76.5,77.8333 76.5,76.5 Z"/>
<path fill="#fafafa" d="M 127.5,130.5 C 109.992,130.83 92.6586,130.497 75.5,129.5C 87.798,116.702 100.298,104.035 113,91.5C 119,97.5 125,103.5 131,109.5C 131.667,115.833 131.667,122.167 131,128.5C 130.184,129.823 129.017,130.489 127.5,130.5 Z"/>
<path fill="#c0c0c0" d="M 75.5,129.5 C 92.6586,130.497 109.992,130.83 127.5,130.5C 109.671,131.662 91.6714,131.829 73.5,131C 74.0442,130.283 74.7109,129.783 75.5,129.5 Z"/>
</svg>
